<?xml version="1.0" standalone="no"?>
<!DOCTYPE svg PUBLIC "-//W3C//DTD SVG 20010904//EN"
 "http://www.w3.org/TR/2001/REC-SVG-20010904/DTD/svg10.dtd">
<svg version="1.0" xmlns="http://www.w3.org/2000/svg"
 width="120.000000pt" height="120.000000pt" viewBox="0 0 120.000000 120.000000"
 preserveAspectRatio="xMidYMid meet">
<metadata>
Created by potrace 1.14, written by Peter Selinger 2001-2017
</metadata>
<g transform="translate(0.000000,120.000000) scale(0.100000,-0.100000)"
fill="#000000" stroke="none">
<path d="M0 600 l0 -600 600 0 600 0 0 600 0 600 -600 0 -600 0 0 -600z m346
329 l23 -21 -55 -53 c-216 -212 -147 -575 132 -690 58 -24 83 -29 159 -29 115
0 200 32 281 107 l55 50 29 -29 c92 -94 220 -237 220 -245 0 -5 -250 -9 -590
-9 l-590 0 0 317 0 318 152 152 c84 84 155 153 157 153 3 0 15 -9 27 -21z
m406 -41 c79 -36 142 -98 181 -177 29 -60 32 -74 32 -161 0 -83 -3 -102 -27
-151 -36 -72 -104 -141 -176 -176 -51 -25 -68 -28 -157 -28 -89 0 -106 3 -157
28 -74 36 -139 101 -175 175 -25 50 -28 68 -28 152 0 83 4 103 28 155 65 140
193 218 347 212 55 -3 91 -10 132 -29z"/>
<path d="M396 684 c-16 -17 -26 -38 -26 -55 0 -36 17 -38 30 -4 13 35 52 52
85 37 14 -7 30 -23 35 -37 13 -34 30 -32 30 4 0 72 -100 108 -154 55z"/>
<path d="M686 685 c-17 -16 -26 -34 -26 -55 0 -37 15 -39 32 -3 7 14 21 31 30
37 25 15 70 -4 86 -37 17 -35 32 -35 32 2 0 71 -99 107 -154 56z"/>
<path d="M370 488 c1 -122 107 -222 235 -222 128 0 234 100 235 222 l0 42
-235 0 -235 0 0 -42z m100 -28 c0 -36 -2 -40 -25 -40 -22 0 -25 4 -25 40 0 36
3 40 25 40 23 0 25 -4 25 -40z m80 0 c0 -36 -2 -40 -25 -40 -22 0 -25 4 -25
40 0 36 3 40 25 40 23 0 25 -4 25 -40z m80 0 c0 -36 -2 -40 -25 -40 -22 0 -25
4 -25 40 0 36 3 40 25 40 23 0 25 -4 25 -40z m80 0 c0 -36 -2 -40 -25 -40 -22
0 -25 4 -25 40 0 36 3 40 25 40 23 0 25 -4 25 -40z m80 0 c0 -36 -2 -40 -25
-40 -22 0 -25 4 -25 40 0 36 3 40 25 40 23 0 25 -4 25 -40z m-320 -96 c0 -27
-14 -25 -30 7 -9 16 -7 19 10 19 15 0 20 -7 20 -26z m80 -19 c0 -49 -1 -50
-31 -35 -13 8 -19 21 -19 45 0 31 3 35 25 35 23 0 25 -4 25 -45z m80 -5 c0
-47 -2 -50 -25 -50 -23 0 -25 3 -25 50 0 47 2 50 25 50 23 0 25 -3 25 -50z
m80 15 c0 -24 -6 -37 -19 -45 -30 -15 -31 -14 -31 35 0 41 2 45 25 45 22 0 25
-4 25 -35z m60 16 c-16 -32 -30 -34 -30 -7 0 19 5 26 20 26 17 0 19 -3 10 -19z"/>
</g>
</svg>
